<?xml version="1.0" encoding="UTF-8" standalone="no"?>
<!-- Created with Inkscape (http://www.inkscape.org/) -->

<svg
   xmlns:dc="http://purl.org/dc/elements/1.1/"
   xmlns:cc="http://creativecommons.org/ns#"
   xmlns:rdf="http://www.w3.org/1999/02/22-rdf-syntax-ns#"
   xmlns:svg="http://www.w3.org/2000/svg"
   xmlns="http://www.w3.org/2000/svg"
   version="1.2"
   width="744.09448"
   height="1052.3622"
   id="svg2">
  <defs
     id="defs4" />
  <metadata
     id="metadata7">
    <rdf:RDF>
      <cc:Work
         rdf:about="">
        <dc:format>image/svg+xml</dc:format>
        <dc:type
           rdf:resource="http://purl.org/dc/dcmitype/StillImage" />
        <dc:title></dc:title>
      </cc:Work>
    </rdf:RDF>
  </metadata>
  <g
     id="layer1">
    <path
       d="m 638.41641,355.35693 c 0,153.97815 -124.82395,278.8021 -278.80209,278.8021 -153.97815,0 -278.802095,-124.82395 -278.802095,-278.8021 0,-153.97814 124.823945,-278.80209 278.802095,-278.80209 153.97814,0 278.80209,124.82395 278.80209,278.80209 z"
       id="path2985"
       style="fill:#5d9f00;fill-opacity:1;fill-rule:evenodd;stroke:none" />
    <path
       d="m 602.05092,346.26556 c 0,134.45194 -108.99483,243.44677 -243.44676,243.44677 -134.45194,0 -243.44677,-108.99483 -243.44677,-243.44677 0,-134.45193 108.99483,-243.44676 243.44677,-243.44676 134.45193,0 243.44676,108.99483 243.44676,243.44676 z"
       transform="translate(0,10)"
       id="path3771"
       style="fill:#ffffff;fill-opacity:1;stroke:none" />
    <flowRoot
       id="flowRoot3755"
       xml:space="preserve"
       style="font-size:40px;font-style:normal;font-weight:normal;line-height:125%;letter-spacing:0px;word-spacing:0px;fill:#000000;fill-opacity:1;stroke:none;font-family:Sans"><flowRegion
         id="flowRegion3757"><rect
           width="398.00009"
           height="408.10162"
           x="153.54318"
           y="131.10306"
           id="rect3759" /></flowRegion><flowPara
         id="flowPara3761"></flowPara></flowRoot>    <path
       d="m 602.05092,346.26556 c 0,134.45194 -108.99483,243.44677 -243.44676,243.44677 -134.45194,0 -243.44677,-108.99483 -243.44677,-243.44677 0,-67.22597 -3.81349,9.54563 3.11861,-15.06414 51.51252,-1.70025 175.25803,7.84869 260.53121,10.01338 38.52078,0.97786 67.8152,0.69991 221.82972,-5.23937 0.47134,142.55315 1.41399,-56.93584 1.41399,10.29013 z"
       transform="translate(0,10)"
       id="path4012"
       style="fill:#e2e2e2;fill-opacity:1;stroke:none" />
    <g
       transform="translate(-44.446712,22.223356)"
       id="flowRoot3763"
       style="font-size:400px;font-style:normal;font-weight:normal;line-height:125%;letter-spacing:0px;word-spacing:0px;fill:#5d9f00;fill-opacity:1;stroke:none;font-family:Sans">
      <path
         d="m 282.97363,338.66355 c -16.40634,1.2e-4 -29.33764,4.38651 -38.79394,13.15918 -9.34251,8.77288 -14.01373,20.84969 -14.01367,36.23046 -6e-5,15.38092 4.67116,27.45773 14.01367,36.23047 9.4563,8.77282 22.3876,13.15921 38.79394,13.15918 16.40613,3e-5 29.33743,-4.38636 38.79395,-13.15918 9.45622,-8.88667 14.1844,-20.96348 14.18457,-36.23047 -1.7e-4,-15.38077 -4.72835,-27.45758 -14.18457,-36.23046 -9.34259,-8.77267 -22.27389,-13.15906 -38.79395,-13.15918 m -34.52148,-14.69727 c -14.81126,-3.64569 -26.37538,-10.53859 -34.69238,-20.67871 -8.20316,-10.13981 -12.30472,-22.50145 -12.30469,-37.08496 -3e-5,-20.39367 7.23466,-36.51507 21.7041,-48.36426 14.58327,-11.8487 34.5214,-17.77318 59.81445,-17.77344 25.40677,2.6e-4 45.3449,5.92474 59.81446,17.77344 14.46921,11.84919 21.7039,27.97059 21.7041,48.36426 -2e-4,14.58351 -4.15872,26.94515 -12.47559,37.08496 -8.2033,10.14012 -19.65348,17.03302 -34.35058,20.67871 16.63395,3.87383 29.56525,11.45032 38.79394,22.72949 9.34225,11.2794 14.01347,25.06519 14.01367,41.35742 -2e-4,24.72336 -7.57669,43.69307 -22.72949,56.90918 -15.03922,13.21615 -36.62937,19.82422 -64.77051,19.82422 -28.14136,0 -49.78847,-6.60807 -64.9414,-19.82422 -15.0391,-13.21611 -22.55862,-32.18582 -22.5586,-56.90918 -2e-5,-16.29223 4.6712,-30.07802 14.01367,-41.35742 9.34241,-11.27917 22.33067,-18.85566 38.96485,-22.72949 m -12.64649,-54.5166 c -6e-5,13.21632 4.1015,23.52718 12.30469,30.93262 8.31697,7.40575 19.93806,11.10854 34.86328,11.10839 14.81107,1.5e-4 26.37519,-3.70264 34.69239,-11.10839 8.43083,-7.40544 12.64632,-17.7163 12.64648,-30.93262 -1.6e-4,-13.21594 -4.21565,-23.52681 -12.64648,-30.93262 -8.3172,-7.40537 -19.88132,-11.10816 -34.69239,-11.1084 -14.92522,2.4e-4 -26.54631,3.70303 -34.86328,11.1084 -8.20319,7.40581 -12.30475,17.71668 -12.30469,30.93262"
         id="path3903"
         style="font-size:350px;line-height:112.00000048%;fill:#5d9f00" />
      <path
         d="m 505.8252,338.66355 c -16.40635,1.2e-4 -29.33765,4.38651 -38.79395,13.15918 -9.34251,8.77288 -14.01373,20.84969 -14.01367,36.23046 -6e-5,15.38092 4.67116,27.45773 14.01367,36.23047 9.4563,8.77282 22.3876,13.15921 38.79395,13.15918 16.40612,3e-5 29.33742,-4.38636 38.79394,-13.15918 9.45622,-8.88667 14.18441,-20.96348 14.18457,-36.23047 -1.6e-4,-15.38077 -4.72835,-27.45758 -14.18457,-36.23046 -9.34259,-8.77267 -22.27389,-13.15906 -38.79394,-13.15918 m -34.52149,-14.69727 c -14.81126,-3.64569 -26.37537,-10.53859 -34.69238,-20.67871 -8.20316,-10.13981 -12.30472,-22.50145 -12.30469,-37.08496 -3e-5,-20.39367 7.23466,-36.51507 21.7041,-48.36426 14.58327,-11.8487 34.5214,-17.77318 59.81446,-17.77344 25.40676,2.6e-4 45.34489,5.92474 59.81445,17.77344 14.46921,11.84919 21.70391,27.97059 21.7041,48.36426 -1.9e-4,14.58351 -4.15872,26.94515 -12.47559,37.08496 -8.20329,10.14012 -19.65348,17.03302 -34.35058,20.67871 16.63395,3.87383 29.56525,11.45032 38.79394,22.72949 9.34226,11.2794 14.01348,25.06519 14.01368,41.35742 -2e-4,24.72336 -7.57669,43.69307 -22.7295,56.90918 -15.03922,13.21615 -36.62937,19.82422 -64.7705,19.82422 -28.14136,0 -49.78848,-6.60807 -64.94141,-19.82422 -15.03909,-13.21611 -22.55862,-32.18582 -22.55859,-56.90918 -3e-5,-16.29223 4.67119,-30.07802 14.01367,-41.35742 9.3424,-11.27917 22.33067,-18.85566 38.96484,-22.72949 m -12.64648,-54.5166 c -7e-5,13.21632 4.10149,23.52718 12.30468,30.93262 8.31698,7.40575 19.93806,11.10854 34.86329,11.10839 14.81107,1.5e-4 26.37518,-3.70264 34.69238,-11.10839 8.43083,-7.40544 12.64632,-17.7163 12.64648,-30.93262 -1.6e-4,-13.21594 -4.21565,-23.52681 -12.64648,-30.93262 -8.3172,-7.40537 -19.88131,-11.10816 -34.69238,-11.1084 -14.92523,2.4e-4 -26.54631,3.70303 -34.86329,11.1084 -8.20319,7.40581 -12.30475,17.71668 -12.30468,30.93262"
         id="path3905"
         style="font-size:350px;line-height:112.00000048%;fill:#5d9f00" />
    </g>
  </g>
</svg>
